<?xml version="1.0" encoding="utf-8"?>
<!-- Generator: Adobe Illustrator 27.1.1, SVG Export Plug-In . SVG Version: 6.00 Build 0)  -->
<svg version="1.1" id="Layer_2" xmlns="http://www.w3.org/2000/svg" xmlns:xlink="http://www.w3.org/1999/xlink" x="0px" y="0px"
	 viewBox="0 0 400 400" style="enable-background:new 0 0 400 400;" xml:space="preserve">
<style type="text/css">
	.st0{fill:#FFFFFF;}
</style>
<rect x="0.67" y="0.67" width="400" height="400"/>
<g>
	<g>
		<path class="st0" d="M294.19,152.42c0.01-0.06,0.02-0.12,0.03-0.18c0.01-0.06,0.01-0.11,0.01-0.17c0-0.06-0.01-0.12-0.02-0.18
			c-0.01-0.06-0.02-0.11-0.03-0.17c-0.02-0.06-0.04-0.12-0.06-0.18c-0.02-0.04-0.02-0.08-0.04-0.11l-24.59-47.41
			c-0.24-0.47-0.73-0.76-1.26-0.76h-15.15c-0.24-0.18-0.53-0.29-0.86-0.3c-0.54,0-1.03,0.32-1.27,0.8l-8,16.59
			c-0.19,0.39-0.19,0.85,0,1.24l7.39,15.06l-47,94.6h-23.71c0,0-0.01,0-0.01,0c0,0-0.01,0-0.01,0c-0.04,0-0.07,0.01-0.11,0.02
			c-0.09,0.01-0.17,0.02-0.26,0.04c-0.05,0.01-0.09,0.04-0.13,0.06c-0.07,0.03-0.14,0.06-0.21,0.09c-0.05,0.03-0.08,0.06-0.13,0.09
			c-0.06,0.04-0.11,0.09-0.16,0.14c-0.04,0.04-0.07,0.09-0.1,0.13c-0.03,0.04-0.07,0.08-0.09,0.12c-0.01,0.02-0.01,0.04-0.02,0.06
			c-0.01,0.02-0.02,0.03-0.03,0.05l-7.7,15.7c-0.19,0.39-0.19,0.85,0,1.25l8,16.3c0.01,0.02,0.02,0.03,0.03,0.05
			c0.01,0.02,0.02,0.04,0.03,0.06c0.03,0.04,0.06,0.08,0.09,0.12c0.03,0.04,0.06,0.09,0.1,0.13c0.05,0.05,0.11,0.1,0.17,0.14
			c0.04,0.03,0.08,0.06,0.12,0.09c0.07,0.04,0.14,0.07,0.21,0.1c0.04,0.02,0.08,0.04,0.13,0.05c0.09,0.03,0.18,0.03,0.28,0.04
			c0.03,0,0.06,0.01,0.09,0.01c0.01,0,0.01,0,0.02,0h80c0.52,0,1-0.29,1.25-0.75l8.59-16c0.03-0.05,0.04-0.1,0.06-0.15
			c0.02-0.06,0.05-0.11,0.07-0.18c0.01-0.06,0.02-0.12,0.02-0.18c0.01-0.06,0.02-0.12,0.02-0.18c0-0.06-0.01-0.12-0.02-0.18
			s-0.01-0.12-0.03-0.18c-0.02-0.06-0.05-0.12-0.07-0.18c-0.02-0.05-0.03-0.1-0.06-0.15l-8.89-15.7c-0.25-0.44-0.72-0.72-1.23-0.72
			c0,0,0,0,0,0l-21.51,0.03l30.68-60.9h15.72c0.54,0,1.04-0.31,1.28-0.8l8.3-17.19c0.02-0.04,0.02-0.07,0.04-0.11
			C294.15,152.53,294.17,152.48,294.19,152.42z M290.49,150.67H277.1l-22.42-44.57h12.69L290.49,150.67z M234.66,232.16
			c-0.05,0.07-0.11,0.13-0.15,0.21l-7.46,14.88h-11.37l44.36-90.86l6.31,12.86L234.66,232.16z M252.18,107.73l22.46,44.37
			l-6.72,13.92l-6.59-13.52c0,0,0,0,0,0c0,0,0,0,0,0l-8.11-16.5c-0.04-0.08-0.1-0.15-0.15-0.22l-7.27-14.81L252.18,107.73z
			 M251.92,139.86l6.53,13.31l-45.14,92.47l-7.48-13.02L251.92,139.86z M203.4,234.09l7.27,12.66l0.29,0.51h-21.89L182,234.09H203.4
			z M179.69,235.78l6.93,12.91l-6.66,12.84l-6.46-13.15L179.69,235.78z M259.08,263.26h-76.82l0.3-0.57l6.53-12.59h24.32h14.52
			h38.22L259.08,263.26z M258.81,234.39l7.28,12.87h-35.86l6.46-12.83L258.81,234.39z M283.63,167.85h-13.44l6.93-14.35h13.44
			L283.63,167.85z"/>
		<path class="st0" d="M204.23,218.39c0.53,0,1.02-0.3,1.26-0.78l24.3-48c0.02-0.04,0.02-0.07,0.04-0.11
			c0.02-0.06,0.05-0.11,0.06-0.17c0.01-0.06,0.02-0.11,0.03-0.17c0.01-0.06,0.02-0.12,0.02-0.18c0-0.06-0.01-0.12-0.01-0.18
			c-0.01-0.06-0.01-0.12-0.03-0.18c-0.01-0.06-0.04-0.11-0.06-0.17c-0.01-0.04-0.02-0.07-0.04-0.11l-32-64.89
			c-0.24-0.48-0.73-0.79-1.27-0.79h-16c-0.49,0-0.94,0.25-1.2,0.66c-0.14,0.22-0.2,0.46-0.21,0.71l-71.86,144.3
			c-0.2,0.4-0.2,0.86,0,1.26l7.7,15.7c0.01,0.02,0.03,0.03,0.04,0.05c0.01,0.02,0.02,0.05,0.03,0.07c0.03,0.04,0.06,0.08,0.09,0.11
			c0.03,0.04,0.06,0.09,0.1,0.12c0.05,0.05,0.11,0.1,0.17,0.14c0.04,0.03,0.08,0.06,0.12,0.09c0.07,0.04,0.15,0.07,0.23,0.1
			c0.04,0.01,0.08,0.04,0.12,0.05c0.11,0.03,0.23,0.05,0.34,0.05c0.01,0,0.02,0,0.03,0c0,0,0,0,0,0h15.7c0.54,0,1.03-0.3,1.27-0.79
			l23.22-46.7L204.23,218.39z M194.93,169.25l-7.57,14.59l-13.61-0.12l14.23-28.61L194.93,169.25z M172.36,186.55l15.02,0.13
			l6.44,11.69h-27.32L172.36,186.55z M203.35,215.56l-45.37,0.21l7.13-14.56h31.12c0,0,0.01,0,0.01,0c0,0,0.01,0,0.01,0
			c0.04,0,0.07-0.01,0.11-0.02c0.08-0.01,0.16-0.01,0.24-0.03c0.01,0,0.01,0,0.02-0.01c0.04-0.01,0.08-0.04,0.13-0.05
			c0.07-0.03,0.14-0.05,0.2-0.09c0.01,0,0.02-0.01,0.02-0.01c0.04-0.02,0.07-0.06,0.11-0.09c0.06-0.04,0.11-0.08,0.16-0.13
			c0.01-0.01,0.02-0.01,0.03-0.02c0.03-0.03,0.05-0.08,0.08-0.11c0.03-0.04,0.07-0.08,0.1-0.13c0.01-0.01,0.01-0.03,0.02-0.04
			c0.01-0.01,0.02-0.02,0.02-0.04l15.31-30.04h13.42L203.35,215.56z M195.64,105.5l30.6,62.05h-13.42l-30.04-62.05H195.64z
			 M180.51,107.59l29.84,61.37l-14.17,27.8l-6.34-11.51l7.95-15.33c0.21-0.4,0.21-0.87,0.01-1.28l-16.29-33.17l0-0.01c0,0,0,0,0,0
			l0,0c-0.04-0.07-0.09-0.13-0.13-0.2c-0.03-0.04-0.05-0.09-0.09-0.13c-0.07-0.07-0.15-0.13-0.23-0.19
			c-0.02-0.02-0.04-0.04-0.07-0.06c-0.09-0.05-0.18-0.09-0.28-0.13c-0.03-0.01-0.05-0.03-0.08-0.03c-0.08-0.02-0.17-0.03-0.26-0.04
			c-0.04,0-0.09-0.02-0.13-0.02c0,0,0,0,0,0c0,0,0,0,0,0c0,0,0,0,0,0c-0.05,0-0.09,0.01-0.13,0.02c-0.08,0.01-0.17,0.01-0.25,0.03
			c-0.38,0.11-0.71,0.37-0.89,0.73l-62.72,126.02l-6.13-12.5L180.51,107.59z M131.05,263.26h-12.54l61.7-123.97l6.17,12.67
			L131.05,263.26z"/>
	</g>
	<g>
		<path class="st0" d="M80.84,293.96v4.48h-2.93v-13h4.59c3.28,0,4.92,1.38,4.92,4.14c0,1.31-0.47,2.36-1.41,3.17
			c-0.94,0.81-2.2,1.21-3.77,1.21H80.84z M80.84,287.69v4.05h1.15c1.56,0,2.34-0.68,2.34-2.05c0-1.34-0.78-2-2.34-2H80.84z"/>
		<path class="st0" d="M105.88,298.44h-3.19l-0.92-2.89h-4.62l-0.92,2.89h-3.17l4.73-13h3.47L105.88,298.44z M101.09,293.3
			l-1.4-4.37c-0.1-0.33-0.18-0.72-0.22-1.17H99.4c-0.03,0.38-0.11,0.76-0.23,1.13l-1.41,4.41H101.09z"/>
		<path class="st0" d="M123.45,285.44l-4.48,13h-3.32l-4.42-13h3.16l2.71,9.05c0.15,0.49,0.23,0.92,0.26,1.3h0.05
			c0.04-0.4,0.14-0.85,0.28-1.33l2.69-9.01H123.45z"/>
		<path class="st0" d="M137.88,298.44h-7.74v-13h2.93v10.63h4.81V298.44z"/>
		<path class="st0" d="M150.25,298.67c-1.86,0-3.38-0.61-4.55-1.82c-1.17-1.21-1.76-2.79-1.76-4.74c0-2.06,0.6-3.72,1.79-4.99
			c1.19-1.27,2.77-1.9,4.73-1.9c1.86,0,3.36,0.61,4.5,1.82c1.15,1.22,1.72,2.82,1.72,4.81c0,2.04-0.59,3.69-1.78,4.94
			S152.16,298.67,150.25,298.67z M150.37,287.74c-1.03,0-1.84,0.39-2.45,1.16s-0.91,1.79-0.91,3.06c0,1.29,0.3,2.31,0.91,3.06
			c0.6,0.75,1.4,1.12,2.38,1.12c1.01,0,1.81-0.36,2.4-1.09s0.89-1.74,0.89-3.03c0-1.35-0.29-2.4-0.86-3.15
			C152.16,288.11,151.37,287.74,150.37,287.74z"/>
		<path class="st0" d="M174.78,285.44l-4.48,13h-3.32l-4.42-13h3.16l2.71,9.05c0.15,0.49,0.23,0.92,0.26,1.3h0.05
			c0.04-0.4,0.14-0.85,0.28-1.33l2.69-9.01H174.78z"/>
		<path class="st0" d="M195.73,285.44v2.27h-1.09v8.47h1.09v2.27h-5.1v-2.27h1.09v-8.47h-1.09v-2.27H195.73z"/>
		<path class="st0" d="M214.42,298.44h-2.96l-5.36-8.17c-0.31-0.48-0.53-0.84-0.65-1.08h-0.04c0.05,0.46,0.07,1.16,0.07,2.1v7.15
			h-2.77v-13h3.16l5.16,7.92c0.24,0.36,0.45,0.71,0.65,1.06h0.04c-0.05-0.3-0.07-0.9-0.07-1.79v-7.19h2.77V298.44z"/>
		<path class="st0" d="M221.92,297.94v-2.9c0.53,0.44,1.1,0.77,1.71,0.99s1.24,0.33,1.87,0.33c0.37,0,0.69-0.03,0.97-0.1
			c0.27-0.07,0.5-0.16,0.69-0.28c0.18-0.12,0.32-0.26,0.41-0.42c0.09-0.16,0.14-0.33,0.14-0.52c0-0.25-0.07-0.48-0.22-0.68
			s-0.34-0.38-0.59-0.55c-0.25-0.17-0.55-0.33-0.89-0.49c-0.34-0.16-0.72-0.32-1.12-0.48c-1.02-0.42-1.77-0.94-2.27-1.55
			c-0.5-0.61-0.75-1.35-0.75-2.21c0-0.68,0.14-1.26,0.41-1.75s0.64-0.89,1.11-1.2c0.47-0.31,1.01-0.55,1.63-0.69
			c0.62-0.15,1.27-0.22,1.96-0.22c0.68,0,1.28,0.04,1.8,0.12c0.52,0.08,1,0.21,1.45,0.38v2.71c-0.22-0.15-0.46-0.28-0.71-0.4
			c-0.26-0.11-0.52-0.21-0.79-0.29s-0.54-0.13-0.81-0.17s-0.52-0.05-0.77-0.05c-0.33,0-0.63,0.03-0.91,0.1s-0.5,0.15-0.69,0.27
			c-0.19,0.12-0.33,0.25-0.44,0.41c-0.1,0.16-0.15,0.34-0.15,0.54c0,0.22,0.06,0.41,0.17,0.58c0.11,0.17,0.28,0.33,0.49,0.49
			s0.47,0.31,0.77,0.45c0.3,0.15,0.64,0.3,1.02,0.46c0.52,0.22,0.99,0.45,1.4,0.69c0.41,0.24,0.77,0.52,1.07,0.83
			c0.3,0.31,0.52,0.66,0.68,1.06c0.16,0.4,0.24,0.86,0.24,1.38c0,0.73-0.14,1.33-0.41,1.83c-0.27,0.49-0.65,0.89-1.12,1.2
			c-0.47,0.3-1.02,0.52-1.65,0.66s-1.29,0.2-1.98,0.2c-0.71,0-1.39-0.06-2.04-0.18C222.95,298.36,222.39,298.18,221.92,297.94z"/>
		<path class="st0" d="M247.18,287.82h-3.71v10.62h-2.94v-10.62h-3.69v-2.38h10.34V287.82z"/>
		<path class="st0" d="M258.07,285.44v2.27h-1.09v8.47h1.09v2.27h-5.1v-2.27h1.09v-8.47h-1.09v-2.27H258.07z"/>
		<path class="st0" d="M274.19,287.82h-3.71v10.62h-2.94v-10.62h-3.69v-2.38h10.34V287.82z"/>
		<path class="st0" d="M291.67,292.81c0,3.91-1.82,5.86-5.46,5.86c-3.53,0-5.3-1.91-5.3-5.72v-7.51h2.94v7.54
			c0,2.1,0.82,3.16,2.47,3.16c1.61,0,2.42-1.02,2.42-3.05v-7.65h2.93V292.81z"/>
		<path class="st0" d="M308.75,287.82h-3.71v10.62h-2.94v-10.62h-3.69v-2.38h10.34V287.82z"/>
		<path class="st0" d="M323.42,298.44h-7.8v-13h7.5v2.38h-4.57v2.89h4.25v2.38h-4.25v2.97h4.87V298.44z"/>
	</g>
</g>
</svg>
